<svg width="64" height="64" viewBox="0 0 64 64" fill="none" xmlns="http://www.w3.org/2000/svg">
<rect width="64" height="64" rx="6" fill="#228632"/>
<path fill-rule="evenodd" clip-rule="evenodd" d="M19.8993 35.6427L19.5801 13.4013C19.5801 11.8259 20.3433 10.5506 21.8697 9.57538C23.3961 8.52513 25.3714 8 27.7956 8C32.6482 8 33.9857 8.18885 36.6606 8.56654C36.9058 8.60116 37.1623 8.63737 37.4337 8.67516C40.5762 9.12528 43.1351 9.80044 45.1104 10.7007V34.88C46.0874 35.1425 46.954 35.534 47.7104 36.0545C49.2368 37.0297 50 38.3051 50 39.8804L49.4491 64H36.3075L36.4152 54.7064C36.4152 53.9042 36.2546 53.2548 35.9333 52.7582C35.6121 52.2234 35.1965 51.956 34.6863 51.956C33.5715 51.956 31.3455 52.0706 30.6653 52.2998C30.004 52.529 29.4655 52.8728 29.0498 53.3312V64H15V37.1798C16.3575 36.5611 17.9906 36.0488 19.8993 35.6427ZM35.9515 34.5395C33.4186 34.5861 30.7059 34.6595 28.3352 34.7598L28.065 16.2145C28.065 15.8394 28.469 15.6144 29.2771 15.5393L34.4707 15.2018L35.6828 15.8769L35.9515 34.5395Z" fill="white"/>
</svg>
