<svg width="371" height="94" viewBox="0 0 371 94" fill="none" xmlns="http://www.w3.org/2000/svg">
<path fill-rule="evenodd" clip-rule="evenodd" d="M174 6.144L174.303 31.4436C172.489 31.9055 170.937 32.4883 169.647 33.192V83.832C169.647 86.392 170.33 88.2267 171.695 89.336C173.06 90.4453 175.492 91 178.991 91H202.015L202.911 36.264C202.911 34.472 202.186 33.0213 200.735 31.912C200.016 31.32 199.192 30.8746 198.264 30.576V3.072C196.387 2.048 193.955 1.28 190.968 0.767998C190.71 0.725006 190.466 0.683818 190.233 0.644436C187.691 0.214812 186.42 0 181.808 0C179.504 0 177.627 0.597333 176.176 1.792C174.725 2.90133 174 4.352 174 6.144ZM182.321 30.4393C184.574 30.3252 187.152 30.2417 189.559 30.1887L189.304 8.96L188.152 8.192L183.216 8.576C182.448 8.66134 182.064 8.91734 182.064 9.344L182.321 30.4393ZM183.431 80.1527C183.718 80.7176 184.23 81 184.966 81H189.811L190 53.1285C190 52.216 189.847 51.4774 189.542 50.9125C189.237 50.3042 188.842 50 188.357 50C187.297 50 185.182 50.1304 184.535 50.3911C183.907 50.6518 183.395 51.0428 183 51.5643V77.3501C183 78.6536 183.144 79.5878 183.431 80.1527Z" fill="white"/>
<path d="M2.944 0.119995L0 91H11.264V45.56L24.576 43.256V36.856H10.624V11.384H26.368V0.119995H2.944Z" fill="#57DA6C"/>
<path d="M36.64 88.44H47.392L44.704 0.119995H36.64V88.44Z" fill="#57DA6C"/>
<path d="M84.871 91H59.015V0.119995H68.487V77.56L70.407 80.504L84.871 82.168V91Z" fill="#57DA6C"/>
<path d="M95.253 88.44H125.333L123.797 75.512L106.517 77.816V45.176L119.829 42.872V36.472H105.877V10.104H124.181V0.119995H98.197L95.253 88.44Z" fill="#57DA6C"/>
<path d="M160.217 91H136.025V0.119995H148.441L145.753 80.504L160.217 82.808V91Z" fill="#57DA6C"/>
<path d="M247.512 88.44H220.248L215 83.064L217.56 7.41599C217.645 5.53866 218.413 3.87466 219.864 2.424C221.4 0.887995 223.491 0.119995 226.136 0.119995L227.8 0.247993L247.512 2.808L245.464 23.416H239.576V11.512C239.576 10.744 239.064 10.36 238.04 10.36H230.104C228.483 10.36 227.288 11.0427 226.52 12.408C225.837 13.688 225.496 15.1387 225.496 16.76C225.496 17.6987 225.624 18.2533 225.88 18.424V78.328C225.624 78.4133 225.496 78.5413 225.496 78.712C225.496 78.968 225.88 79.096 226.648 79.096H239.32C240.344 79.096 240.856 78.84 240.856 78.328V68.728L243.288 67.192L247.512 67.064V88.44Z" fill="#57DA6C"/>
<path d="M287.83 93.56H277.59V57.208L270.678 50.808L269.27 51.832V93.56H260.694L257.75 2.67999H267.734V41.08L271.062 43L276.822 38.392L278.102 0.119995H289.11L283.734 41.592L277.59 45.688L286.422 50.808L287.83 93.56Z" fill="#57DA6C"/>
<path d="M298.012 88.44H328.092L326.556 75.512L309.276 77.816V45.176L322.588 42.872V36.472H308.636V10.104H326.94V0.119995H300.956L298.012 88.44Z" fill="#57DA6C"/>
<path fill-rule="evenodd" clip-rule="evenodd" d="M339.024 1.52799C339.024 1.10133 340.773 0.759995 344.272 0.503998C347.771 0.247996 351.227 0.119995 354.64 0.119995H360.144C361.509 0.119995 362.619 0.631996 363.472 1.656C364.325 2.68 364.795 4.00266 364.88 5.62399L366.16 42.488L360.4 50.04L370.64 88.184L368.208 91H360.656L354.128 51.192L347.6 51.832L344.912 91H339.024V1.52799ZM356.688 41.72C357.2 41.72 357.456 41.464 357.456 40.952V9.07999L355.536 7.16L346.704 8.056L347.088 42.232L356.688 41.72Z" fill="#57DA6C"/>
</svg>
